<svg width="1200" height="325" xmlns="http://www.w3.org/2000/svg">

<rect x="110" y="168" width="37" height="35" style="fill:red;stroke-width:3;stroke:rgb(255,255,255)" />
<text x="128" y="230" font-size="12" text-anchor="middle">Apple</text>
<text x="128" y="163" font-size="12" text-anchor="middle">35</text>
<rect x="148" y="183" width="37" height="20" style="fill:red;stroke-width:3;stroke:rgb(255,255,255)" />
<text x="166" y="230" font-size="12" text-anchor="middle">Banan</text>
<text x="166" y="178" font-size="12" text-anchor="middle">20</text>
<rect x="187" y="173" width="37" height="30" style="fill:red;stroke-width:3;stroke:rgb(255,255,255)" />
<text x="205" y="230" font-size="12" text-anchor="middle">Cranb</text>
<text x="205" y="168" font-size="12" text-anchor="middle">30</text>
<rect x="226" y="163" width="37" height="40" style="fill:red;stroke-width:3;stroke:rgb(255,255,255)" />
<text x="244" y="230" font-size="12" text-anchor="middle">Drago</text>
<text x="244" y="158" font-size="12" text-anchor="middle">40</text>
<rect x="265" y="153" width="37" height="50" style="fill:red;stroke-width:3;stroke:rgb(255,255,255)" />
<text x="283" y="230" font-size="12" text-anchor="middle">Entaw</text>
<text x="283" y="148" font-size="12" text-anchor="middle">50</text>
<rect x="304" y="143" width="37" height="60" style="fill:red;stroke-width:3;stroke:rgb(255,255,255)" />
<text x="322" y="230" font-size="12" text-anchor="middle">FujiA</text>
<text x="322" y="138" font-size="12" text-anchor="middle">60</text>
<rect x="343" y="133" width="37" height="70" style="fill:red;stroke-width:3;stroke:rgb(255,255,255)" />
<text x="361" y="230" font-size="12" text-anchor="middle">Guava</text>
<text x="361" y="128" font-size="12" text-anchor="middle">70</text>
<rect x="381" y="123" width="37" height="80" style="fill:red;stroke-width:3;stroke:rgb(255,255,255)" />
<text x="399" y="230" font-size="12" text-anchor="middle">Honey</text>
<text x="399" y="118" font-size="12" text-anchor="middle">80</text>
<rect x="420" y="113" width="37" height="90" style="fill:red;stroke-width:3;stroke:rgb(255,255,255)" />
<text x="438" y="230" font-size="12" text-anchor="middle">Icaco</text>
<text x="438" y="108" font-size="12" text-anchor="middle">90</text>
<rect x="459" y="193" width="37" height="10" style="fill:red;stroke-width:3;stroke:rgb(255,255,255)" />
<text x="477" y="230" font-size="12" text-anchor="middle">Jackf</text>
<text x="477" y="188" font-size="12" text-anchor="middle">10</text>
<rect x="498" y="153" width="37" height="50" style="fill:red;stroke-width:3;stroke:rgb(255,255,255)" />
<text x="516" y="230" font-size="12" text-anchor="middle">Kiwi</text>
<text x="516" y="148" font-size="12" text-anchor="middle">50</text>
<rect x="537" y="128" width="37" height="75" style="fill:red;stroke-width:3;stroke:rgb(255,255,255)" />
<text x="555" y="230" font-size="12" text-anchor="middle">Lemon</text>
<text x="555" y="123" font-size="12" text-anchor="middle">75</text>
<rect x="576" y="153" width="37" height="50" style="fill:red;stroke-width:3;stroke:rgb(255,255,255)" />
<text x="594" y="230" font-size="12" text-anchor="middle">Mango</text>
<text x="594" y="148" font-size="12" text-anchor="middle">50</text>
<rect x="615" y="163" width="37" height="40" style="fill:red;stroke-width:3;stroke:rgb(255,255,255)" />
<text x="633" y="230" font-size="12" text-anchor="middle">Nutme</text>
<text x="633" y="158" font-size="12" text-anchor="middle">40</text>
<rect x="653" y="168" width="37" height="35" style="fill:red;stroke-width:3;stroke:rgb(255,255,255)" />
<text x="671" y="230" font-size="12" text-anchor="middle">Orang</text>
<text x="671" y="163" font-size="12" text-anchor="middle">35</text>
<rect x="692" y="128" width="37" height="75" style="fill:red;stroke-width:3;stroke:rgb(255,255,255)" />
<text x="710" y="230" font-size="12" text-anchor="middle">Passi</text>
<text x="710" y="123" font-size="12" text-anchor="middle">75</text>
<rect x="731" y="173" width="37" height="30" style="fill:red;stroke-width:3;stroke:rgb(255,255,255)" />
<text x="749" y="230" font-size="12" text-anchor="middle">Quinc</text>
<text x="749" y="168" font-size="12" text-anchor="middle">30</text>
<rect x="770" y="133" width="37" height="70" style="fill:red;stroke-width:3;stroke:rgb(255,255,255)" />
<text x="788" y="230" font-size="12" text-anchor="middle">Rambu</text>
<text x="788" y="128" font-size="12" text-anchor="middle">70</text>
<rect x="809" y="188" width="37" height="15" style="fill:red;stroke-width:3;stroke:rgb(255,255,255)" />
<text x="827" y="230" font-size="12" text-anchor="middle">Straw</text>
<text x="827" y="183" font-size="12" text-anchor="middle">15</text>
<rect x="848" y="153" width="37" height="50" style="fill:red;stroke-width:3;stroke:rgb(255,255,255)" />
<text x="866" y="230" font-size="12" text-anchor="middle">Tamar</text>
<text x="866" y="148" font-size="12" text-anchor="middle">50</text>
<rect x="887" y="158" width="37" height="45" style="fill:red;stroke-width:3;stroke:rgb(255,255,255)" />
<text x="905" y="230" font-size="12" text-anchor="middle">Uglif</text>
<text x="905" y="153" font-size="12" text-anchor="middle">45</text>
<rect x="925" y="138" width="37" height="65" style="fill:red;stroke-width:3;stroke:rgb(255,255,255)" />
<text x="943" y="230" font-size="12" text-anchor="middle">Vanil</text>
<text x="943" y="133" font-size="12" text-anchor="middle">65</text>
<rect x="964" y="98" width="37" height="105" style="fill:red;stroke-width:3;stroke:rgb(255,255,255)" />
<text x="982" y="230" font-size="12" text-anchor="middle">Water</text>
<text x="982" y="93" font-size="12" text-anchor="middle">105</text>
<rect x="1003" y="158" width="37" height="45" style="fill:red;stroke-width:3;stroke:rgb(255,255,255)" />
<text x="1021" y="230" font-size="12" text-anchor="middle">Xigua</text>
<text x="1021" y="153" font-size="12" text-anchor="middle">45</text>
<rect x="1042" y="128" width="37" height="75" style="fill:red;stroke-width:3;stroke:rgb(255,255,255)" />
<text x="1060" y="230" font-size="12" text-anchor="middle">Yuzu</text>
<text x="1060" y="123" font-size="12" text-anchor="middle">75</text>
<rect x="1081" y="198" width="37" height="5" style="fill:red;stroke-width:3;stroke:rgb(255,255,255)" />
<text x="1099" y="230" font-size="12" text-anchor="middle">Zucch</text>
<text x="1099" y="193" font-size="12" text-anchor="middle">5</text>
<line x1="100" y1="100" x2="100" y2="205" style="stroke:rgb(0,0,0);stroke-width:2"/>
<line x1="100" y1="205" x2="1150" y2="205" style="stroke:rgb(0,0,0);stroke-width:2"/>
<text x="600" y="295" font-size="30" text-anchor="middle">fruit sales</text>
</svg>
